# xmcd
#
# Track frame offsets:
#	150
#	15635
#	26610
#	42080
#	55062
#	70425
#	85575
#	101620
#	110720
#	122577
#
# Disc length: 1886 seconds
#
# Revision: 1
# Processed by: cddbd v1.5.1PL2 Copyright (c) Steve Scherf et al.
# Submitted via: audiograbber 1.83.01
#
DISCID=7b075c0a
DTITLE=Various Artist - Nashville Sounds
DYEAR=1900
DGENRE=Country
TTITLE0=Earl T Conley - Smokey Mnt Memories (EarlT Conley)
TTITLE1=Willie Nelson - Good Times (Willie Nelson)
TTITLE2=Louise Mandrell  - Biggest broken heart in Houston(Mandrell)
TTITLE3=Juice Newton - Catwillow River(Juice Newton)
TTITLE4=Razzy Baily - Friends(Razzy Baily)
TTITLE5=Jerry Reed - Texas Bound and Flying (Jerry Reed)
TTITLE6=Dottie West - Once you were mine(Dottie West)
TTITLE7=Floyd Cramer - DAllas (Floyd Cramer)
TTITLE8=Dave and Sugar - Stay with me (dave and sugar)
TTITLE9=Ray Stevens - One more last chance(Ray Stevens)
EXTD=
EXTT0=
EXTT1=
EXTT2=
EXTT3=
EXTT4=
EXTT5=
EXTT6=
EXTT7=
EXTT8=
EXTT9=
PLAYORDER=
